<svg xmlns="http://www.w3.org/2000/svg" width="300" height="300" viewBox="0 0 300 300" fill="none" stroke="#D79A4E" stroke-width="1">
  <!-- folha 1 -->
  <path d="M50 50 Q70 30, 90 50 Q100 70, 90 90 Q70 95, 60 80 Q55 65, 50 50 Z" stroke-linecap="round" stroke-linejoin="round"/>
  <line x1="60" y1="55" x2="80" y2="80" stroke-width="0.5"/>
  
  <!-- galho central -->
  <path d="M30 280 Q60 250, 90 220 Q130 180, 170 130 Q210 80, 250 50" stroke-width="1.5" stroke-linecap="round"/>
  
  <!-- folha 2 -->
  <path d="M150 130 Q170 110, 190 125 Q200 145, 185 160 Q165 165, 155 150 Z" stroke-linecap="round" stroke-linejoin="round"/>
  <line x1="160" y1="135" x2="180" y2="155" stroke-width="0.5"/>
  
  <!-- folha 3 -->
  <path d="M210 80 Q230 60, 250 75 Q260 95, 245 110 Q225 115, 215 100 Z" stroke-linecap="round" stroke-linejoin="round"/>
  <line x1="220" y1="85" x2="240" y2="105" stroke-width="0.5"/>
  
  <!-- folha pequena -->
  <path d="M90 220 Q105 210, 115 220 Q120 235, 110 240 Q98 240, 92 230 Z" stroke-linecap="round" stroke-linejoin="round"/>
  
  <!-- elementos pontilhados (poeira mágica) -->
  <circle cx="120" cy="180" r="1" fill="#D79A4E"/>
  <circle cx="160" cy="200" r="1.5" fill="#D79A4E"/>
  <circle cx="100" cy="160" r="0.8" fill="#D79A4E"/>
  <circle cx="200" cy="160" r="1" fill="#D79A4E"/>
  <circle cx="240" cy="120" r="1.2" fill="#D79A4E"/>
</svg>