<svg xmlns="http://www.w3.org/2000/svg" width="400" height="400" viewBox="0 0 400 400">
  <g fill="#D79A4E">
    <circle cx="40" cy="60" r="1.5" opacity="0.8"/>
    <circle cx="120" cy="30" r="1" opacity="0.6"/>
    <circle cx="200" cy="80" r="2" opacity="0.9"/>
    <circle cx="280" cy="50" r="1.2" opacity="0.7"/>
    <circle cx="350" cy="100" r="1.5" opacity="0.8"/>
    <circle cx="60" cy="140" r="1" opacity="0.6"/>
    <circle cx="160" cy="180" r="1.8" opacity="0.85"/>
    <circle cx="240" cy="160" r="1.2" opacity="0.7"/>
    <circle cx="320" cy="200" r="1.5" opacity="0.8"/>
    <circle cx="80" cy="250" r="2" opacity="0.9"/>
    <circle cx="180" cy="280" r="1" opacity="0.5"/>
    <circle cx="260" cy="240" r="1.3" opacity="0.75"/>
    <circle cx="340" cy="280" r="1" opacity="0.6"/>
    <circle cx="50" cy="340" r="1.5" opacity="0.8"/>
    <circle cx="140" cy="360" r="1.2" opacity="0.7"/>
    <circle cx="220" cy="330" r="1.8" opacity="0.85"/>
    <circle cx="300" cy="370" r="1" opacity="0.6"/>
    <circle cx="380" cy="340" r="1.4" opacity="0.75"/>
    <!-- estrelinhas com 4 pontas em alguns pontos -->
    <path d="M100 100 L102 105 L107 107 L102 109 L100 114 L98 109 L93 107 L98 105 Z" opacity="0.6"/>
    <path d="M260 120 L262 125 L267 127 L262 129 L260 134 L258 129 L253 127 L258 125 Z" opacity="0.7"/>
    <path d="M180 220 L182 225 L187 227 L182 229 L180 234 L178 229 L173 227 L178 225 Z" opacity="0.6"/>
  </g>
</svg>